<?xml version="1.0" encoding="utf-8"?>
<!-- Generator: Adobe Illustrator 24.1.2, SVG Export Plug-In . SVG Version: 6.00 Build 0)  -->
<svg version="1.1" baseProfile="basic" id="Layer_1"
	 xmlns="http://www.w3.org/2000/svg" xmlns:xlink="http://www.w3.org/1999/xlink" x="0px" y="0px" viewBox="0 0 1366 768"
	 xml:space="preserve">
<style type="text/css">
	.st0{fill:#FFFFFF;}
</style>
<g>
	<polygon class="st0" points="224.5,260.66 173.76,287.33 183.45,230.84 142.41,190.83 199.13,182.58 224.5,131.18 249.87,182.58 
		306.59,190.83 265.55,230.84 275.24,287.33 	"/>
	<path d="M224.5,132.31l24.8,50.26l0.23,0.47l0.52,0.08l55.46,8.06l-40.13,39.12l-0.38,0.37l0.09,0.52l9.47,55.24l-49.61-26.08
		l-0.47-0.24l-0.47,0.24l-49.61,26.08l9.47-55.24l0.09-0.52l-0.38-0.37l-40.13-39.12l55.46-8.06l0.52-0.08l0.23-0.47L224.5,132.31
		 M224.5,130.05l-25.7,52.07l-57.47,8.35l41.58,40.53l-9.82,57.23l51.4-27.02l51.4,27.02l-9.82-57.23l41.58-40.53l-57.47-8.35
		L224.5,130.05L224.5,130.05z"/>
</g>
</svg>
